<svg width="125" height="122" viewBox="0 0 125 122" fill="none" xmlns="http://www.w3.org/2000/svg">
<path d="M67.9228 32.357H62.3071C61.8107 32.357 61.3345 32.5542 60.9835 32.9053C60.6325 33.2563 60.4352 33.7324 60.4352 34.2289C60.4352 34.7253 60.6325 35.2015 60.9835 35.5525C61.3345 35.9036 61.8107 36.1008 62.3071 36.1008H66.0509C66.5474 36.1008 67.0235 36.298 67.3745 36.649C67.7256 37.0001 67.9228 37.4762 67.9228 37.9727C67.9228 38.4691 67.7256 38.9452 67.3745 39.2963C67.0235 39.6473 66.5474 39.8446 66.0509 39.8446H60.4352M64.179 41.7164V30.4851M73.5385 36.1008C73.5385 41.2699 69.3481 45.4602 64.179 45.4602C59.0099 45.4602 54.8196 41.2699 54.8196 36.1008C54.8196 30.9317 59.0099 26.7413 64.179 26.7413C69.3481 26.7413 73.5385 30.9317 73.5385 36.1008Z" stroke="#7C7C7C" stroke-width="2" stroke-linecap="round" stroke-linejoin="round"/>
<path d="M58.9352 71.9583H33.4266V0H59.146C66.384 0 72.6148 1.44057 77.8383 4.32172C83.0619 7.17943 87.0791 11.2903 89.8899 16.6544C92.7242 22.0185 94.1414 28.4366 94.1414 35.9089C94.1414 43.4045 92.7242 49.8461 89.8899 55.2336C87.0791 60.6211 83.0384 64.7554 77.7681 67.6366C72.5211 70.5177 66.2435 71.9583 58.9352 71.9583ZM48.6404 58.9229H58.3028C62.8002 58.9229 66.5831 58.1265 69.6517 56.5336C72.7436 54.9174 75.0626 52.4227 76.6086 49.0497C78.178 45.6532 78.9627 41.273 78.9627 35.9089C78.9627 30.5916 78.178 26.2465 76.6086 22.8735C75.0626 19.5004 72.7553 17.0175 69.6868 15.4247C66.6183 13.8318 62.8353 13.0354 58.3379 13.0354H48.6404V58.9229Z" fill="#7C7C7C"/>
<path d="M26.7413 92.2573V0H49.4713V92.2573H26.7413Z" fill="url(#paint0_linear_506_2)"/>
<path d="M26.7413 70.8644V56.8791C26.7413 56.8791 66.8517 56.8791 70.3702 56.1799C73.8888 55.4806 57.7038 70.8644 50.6668 70.8644H26.7413Z" fill="url(#paint1_linear_506_2)"/>
<path d="M64.179 84.2351L96.2685 61.505V91.5889L64.179 84.2351Z" fill="#BB5502"/>
<circle cx="58.1622" cy="87.5777" r="2.00559" fill="#ED6C02"/>
<path d="M6.29597 121.673H0V102.225H6.49539C8.40096 102.225 10.0375 102.614 11.4049 103.393C12.7724 104.165 13.8201 105.276 14.5482 106.726C15.2825 108.169 15.6497 109.901 15.6497 111.92C15.6497 113.946 15.2794 115.687 14.5387 117.143C13.8043 118.599 12.7407 119.72 11.3479 120.505C9.95517 121.283 8.27118 121.673 6.29597 121.673ZM2.93432 119.109H6.13454C7.61594 119.109 8.84728 118.83 9.82855 118.273C10.8098 117.71 11.5442 116.896 12.0317 115.833C12.5191 114.763 12.7629 113.459 12.7629 111.92C12.7629 110.394 12.5191 109.1 12.0317 108.036C11.5505 106.973 10.832 106.166 9.87603 105.615C8.92008 105.064 7.73306 104.789 6.31496 104.789H2.93432V119.109Z" fill="#7C7C7C"/>
<path d="M19.2986 121.673V102.225H31.4917V104.751H22.2329V110.676H30.8555V113.193H22.2329V119.147H31.6057V121.673H19.2986Z" fill="#7C7C7C"/>
<path d="M35.4113 121.673V102.225H42.5334C43.9135 102.225 45.0562 102.453 45.9615 102.908C46.8668 103.358 47.5442 103.969 47.9937 104.741C48.4432 105.507 48.668 106.371 48.668 107.334C48.668 108.144 48.5192 108.828 48.2216 109.385C47.9241 109.936 47.5252 110.379 47.0251 110.714C46.5313 111.043 45.9869 111.284 45.3918 111.436V111.626C46.0375 111.657 46.6674 111.866 47.2815 112.253C47.9019 112.632 48.4147 113.174 48.8199 113.876C49.2251 114.579 49.4276 115.434 49.4276 116.44C49.4276 117.434 49.1934 118.327 48.7249 119.118C48.2628 119.903 47.5474 120.527 46.5788 120.989C45.6102 121.445 44.3725 121.673 42.8658 121.673H35.4113ZM38.3456 119.156H42.5809C43.9863 119.156 44.9929 118.884 45.6007 118.34C46.2084 117.795 46.5123 117.115 46.5123 116.298C46.5123 115.684 46.3572 115.12 46.047 114.608C45.7368 114.095 45.2936 113.687 44.7175 113.383C44.1478 113.079 43.4704 112.927 42.6854 112.927H38.3456V119.156ZM38.3456 110.638H42.277C42.9354 110.638 43.5274 110.512 44.0528 110.258C44.5846 110.005 45.0056 109.651 45.3158 109.195C45.6323 108.733 45.7906 108.188 45.7906 107.561C45.7906 106.757 45.5089 106.083 44.9454 105.539C44.382 104.994 43.5179 104.722 42.353 104.722H38.3456V110.638Z" fill="#7C7C7C"/>
<path d="M51.9489 104.751V102.225H67.0003V104.751H60.9323V121.673H58.0074V104.751H51.9489Z" fill="#7C7C7C"/>
<path d="M77.4034 121.673V102.225H84.3356C85.8487 102.225 87.1022 102.5 88.0961 103.051C89.0901 103.602 89.8339 104.355 90.3277 105.311C90.8215 106.26 91.0684 107.33 91.0684 108.521C91.0684 109.717 90.8184 110.793 90.3182 111.749C89.8244 112.699 89.0774 113.452 88.0771 114.009C87.0832 114.56 85.8329 114.836 84.3261 114.836H79.559V112.348H84.0602C85.0162 112.348 85.7917 112.183 86.3868 111.854C86.9819 111.518 87.4187 111.062 87.6973 110.486C87.9758 109.91 88.1151 109.255 88.1151 108.521C88.1151 107.786 87.9758 107.134 87.6973 106.564C87.4187 105.995 86.9787 105.548 86.3773 105.225C85.7822 104.903 84.9972 104.741 84.0223 104.741H80.3377V121.673H77.4034Z" fill="#7C7C7C"/>
<path d="M94.0882 121.673H90.9735L97.9721 102.225H101.362L108.361 121.673H105.246L99.7479 105.757H99.596L94.0882 121.673ZM94.6105 114.057H104.714V116.526H94.6105V114.057Z" fill="#7C7C7C"/>
<path d="M107.684 102.225H111.018L116.098 111.066H116.307L121.387 102.225H124.721L117.665 114.038V121.673H114.74V114.038L107.684 102.225Z" fill="#7C7C7C"/>
<defs>
<linearGradient id="paint0_linear_506_2" x1="38.1063" y1="0" x2="38.1063" y2="92.2573" gradientUnits="userSpaceOnUse">
<stop stop-color="#ED6C02"/>
<stop offset="0.361581" stop-color="#873E01"/>
<stop offset="0.831371" stop-color="#ED6C02"/>
</linearGradient>
<linearGradient id="paint1_linear_506_2" x1="28.7469" y1="64.8476" x2="68.1902" y2="59.4994" gradientUnits="userSpaceOnUse">
<stop offset="0.446477" stop-color="#954402"/>
<stop offset="1" stop-color="#EE6C02"/>
</linearGradient>
</defs>
</svg>
